User Type,Username,Date,Text
,vivatpb5776,2013-05-11T18:16Z,"For those that care, this is a two-channel audio release. Here are the mediainfo specs:

General
Complete name                    : G:QCMoviesFresh.1994.1080p.BluRay.X264-AMIABLE [PublicHD]Fresh.1994.1080p.BluRay.X264-AMIABLE.mkv
Format                           : Matroska
File size                        : 8.74 GiB
Duration                         : 1h 53mn
Overall bit rate                 : 11.0 Mbps
Writing application              : mkvmerge v4.1.1 ('Bouncin' Back') built on Jul  3 2010 22:54:08
Writing library                  : libebml v1.0.0 + libmatroska v1.0

Video
ID                               : 1
Format                           : AVC
Format/Info                      : Advanced Video Codec
Format profile                   : High@L4.1
Format settings, CABAC           : Yes
Format settings, ReFrames        : 4 frames
Codec ID                         : V_MPEG4/ISO/AVC
Duration                         : 1h 53mn
Bit rate                         : 9 479 Kbps
Width                            : 1 920 pixels
Height                           : 1 080 pixels
Display aspect ratio             : 16:9
Frame rate                       : 23.976 fps
Color space                      : YUV
Chroma subsampling               : 4:2:0
Bit depth                        : 8 bits
Scan type                        : Progressive
Bits/(Pixel*Frame)               : 0.191
Stream size                      : 7.37 GiB (84%)
Writing library                  : x264 core 130 r2273 b3065e6
Encoding settings                : cabac=1 / ref=4 / deblock=1:0:0 / analyse=0x3:0x113 / me=umh / subme=8 / psy=1 / psy_rd=1.00:0.00 / mixed_ref=1 / me_range=16 / chroma_me=1 / trellis=1 / 8x8dct=1 / cqm=0 / deadzone=21,11 / fast_pskip=1 / chroma_qp_offset=-2 / threads=12 / lookahead_threads=2 / sliced_threads=0 / nr=0 / decimate=1 / interlaced=0 / bluray_compat=0 / constrained_intra=0 / bframes=3 / b_pyramid=2 / b_adapt=2 / b_bias=0 / direct=3 / weightb=1 / open_gop=0 / weightp=2 / keyint=240 / keyint_min=24 / scenecut=40 / intra_refresh=0 / rc_lookahead=50 / rc=2pass / mbtree=1 / bitrate=9479 / ratetol=1.0 / qcomp=0.60 / qpmin=0 / qpmax=69 / qpstep=4 / cplxblur=20.0 / qblur=0.5 / ip_ratio=1.40 / aq=1:1.00
Language                         : English

Audio
ID                               : 2
Format                           : DTS
Format/Info                      : Digital Theater Systems
Codec ID                         : A_DTS
Duration                         : 1h 53mn
Bit rate mode                    : Constant
Bit rate                         : 1 510 Kbps
Channel(s)                       : 2 channels
Channel positions                : Front: L R
Sampling rate                    : 48.0 KHz
Bit depth                        : 24 bits
Compression mode                 : Lossy
Stream size                      : 1.20 GiB (14%)
Language                         : English

Menu
00:00:00.000                     : en:00:00:00.000
00:08:52.824                     : en:00:08:52.824
00:16:37.205                     : en:00:16:37.205
00:26:41.683                     : en:00:26:41.683
00:34:18.556                     : en:00:34:18.556
00:46:42.800                     : en:00:46:42.800
00:54:40.986                     : en:00:54:40.986
01:05:01.314                     : en:01:05:01.314
01:13:21.272                     : en:01:13:21.272
01:20:15.644                     : en:01:20:15.644
01:31:38.326                     : en:01:31:38.326
01:48:37.094                     : en:01:48:37.094"
,vivatpb5776,2013-05-11T18:17Z,"CORRECTION - These are the correct specs. Sorry.

General
Complete name                    : G:QCMoviesFresh.1994.720p.BluRay.X264-AMIABLE [PublicHD]Fresh.1994.720p.BluRay.X264-AMIABLE.mkv
Format                           : Matroska
File size                        : 5.46 GiB
Duration                         : 1h 53mn
Overall bit rate                 : 6 865 Kbps
Writing application              : mkvmerge v4.1.1 ('Bouncin' Back') built on Jul  3 2010 22:54:08
Writing library                  : libebml v1.0.0 + libmatroska v1.0

Video
ID                               : 1
Format                           : AVC
Format/Info                      : Advanced Video Codec
Format profile                   : High@L4.1
Format settings, CABAC           : Yes
Format settings, ReFrames        : 5 frames
Codec ID                         : V_MPEG4/ISO/AVC
Duration                         : 1h 53mn
Bit rate                         : 5 356 Kbps
Width                            : 1 280 pixels
Height                           : 720 pixels
Display aspect ratio             : 16:9
Frame rate                       : 23.976 fps
Color space                      : YUV
Chroma subsampling               : 4:2:0
Bit depth                        : 8 bits
Scan type                        : Progressive
Bits/(Pixel*Frame)               : 0.242
Stream size                      : 4.15 GiB (76%)
Writing library                  : x264 core 130 r2273 b3065e6
Encoding settings                : cabac=1 / ref=5 / deblock=1:0:0 / analyse=0x3:0x113 / me=umh / subme=8 / psy=1 / psy_rd=1.00:0.00 / mixed_ref=1 / me_range=16 / chroma_me=1 / trellis=1 / 8x8dct=1 / cqm=0 / deadzone=21,11 / fast_pskip=1 / chroma_qp_offset=-2 / threads=12 / lookahead_threads=2 / sliced_threads=0 / nr=0 / decimate=1 / interlaced=0 / bluray_compat=0 / constrained_intra=0 / bframes=3 / b_pyramid=2 / b_adapt=2 / b_bias=0 / direct=3 / weightb=1 / open_gop=0 / weightp=2 / keyint=240 / keyint_min=24 / scenecut=40 / intra_refresh=0 / rc_lookahead=50 / rc=2pass / mbtree=1 / bitrate=5356 / ratetol=1.0 / qcomp=0.60 / qpmin=0 / qpmax=69 / qpstep=4 / cplxblur=20.0 / qblur=0.5 / ip_ratio=1.40 / aq=1:1.00
Language                         : English

Audio
ID                               : 2
Format                           : DTS
Format/Info                      : Digital Theater Systems
Codec ID                         : A_DTS
Duration                         : 1h 53mn
Bit rate mode                    : Constant
Bit rate                         : 1 510 Kbps
Channel(s)                       : 2 channels
Channel positions                : Front: L R
Sampling rate                    : 48.0 KHz
Bit depth                        : 24 bits
Compression mode                 : Lossy
Stream size                      : 1.20 GiB (22%)
Language                         : English

Menu
00:00:00.000                     : en:00:00:00.000
00:08:52.824                     : en:00:08:52.824
00:16:37.205                     : en:00:16:37.205
00:26:41.683                     : en:00:26:41.683
00:34:18.556                     : en:00:34:18.556
00:46:42.800                     : en:00:46:42.800
00:54:40.986                     : en:00:54:40.986
01:05:01.314                     : en:01:05:01.314
01:13:21.272                     : en:01:13:21.272
01:20:15.644                     : en:01:20:15.644
01:31:38.326                     : en:01:31:38.326
01:48:37.094                     : en:01:48:37.094"
